<svg width="24" height="24" viewBox="0 0 24 24" fill="none" xmlns="http://www.w3.org/2000/svg">
<path d="M23.641 14.9029C22.0381 21.3315 15.5262 25.2438 9.09606 23.6407C2.66863 22.0381 -1.24415 15.5265 0.359423 9.09837C1.96159 2.66903 8.47349 -1.24361 14.9016 0.359081C21.3313 1.96177 25.2438 8.47405 23.6408 14.903L23.6409 14.9029H23.641Z" fill="#F7931A"/>
<path fill-rule="evenodd" clip-rule="evenodd" d="M17.2921 10.2903C17.531 8.6934 16.315 7.83498 14.6523 7.26233L15.1917 5.09914L13.8748 4.77103L13.3497 6.87726C13.0035 6.79092 12.6479 6.70957 12.2945 6.62892L12.8234 4.50878L11.5073 4.18066L10.9676 6.34315C10.6811 6.27793 10.3997 6.21347 10.1267 6.14554L10.1282 6.13874L8.31212 5.68528L7.9618 7.09171C7.9618 7.09171 8.93886 7.31565 8.91827 7.32944C9.45157 7.46252 9.54801 7.81551 9.53199 8.09529L8.91757 10.5597C8.95429 10.569 9.00193 10.5825 9.05449 10.6036L9.01622 10.5941C8.98373 10.5859 8.94996 10.5775 8.91528 10.5692L8.05407 14.0214C7.9889 14.1834 7.82347 14.4266 7.45062 14.3342C7.46382 14.3534 6.49344 14.0954 6.49344 14.0954L5.8396 15.6027L7.5534 16.0299C7.74107 16.077 7.92652 16.1253 8.1101 16.1731C8.23839 16.2066 8.36576 16.2398 8.49233 16.2721L7.94737 18.4601L9.26279 18.7883L9.80248 16.6235C10.1618 16.721 10.5106 16.811 10.852 16.8958L10.3141 19.0504L11.6311 19.3785L12.176 17.1946C14.4217 17.6196 16.1103 17.4482 16.821 15.4172C17.3938 13.7821 16.7925 12.8389 15.6111 12.2238C16.4716 12.0254 17.1197 11.4595 17.2926 10.2905L17.2921 10.2902L17.2921 10.2903ZM14.2832 14.5092C13.9098 16.0094 11.5612 15.3892 10.4867 15.1054C10.3901 15.0799 10.3037 15.0571 10.23 15.0388L10.9532 12.14C11.043 12.1625 11.1527 12.1871 11.277 12.215C12.3885 12.4644 14.6658 12.9754 14.2832 14.5092H14.2832ZM11.4999 10.8696C12.3958 11.1086 14.35 11.6301 14.6904 10.2666H14.6905C15.0381 8.87209 13.1388 8.45164 12.2112 8.2463C12.1069 8.2232 12.0148 8.20282 11.9396 8.18408L11.284 10.8131C11.3459 10.8285 11.4185 10.8479 11.4999 10.8696Z" fill="white"/>
</svg>
