<svg width="44" height="44" viewBox="0 0 44 44" fill="none" xmlns="http://www.w3.org/2000/svg">
<g clip-path="url(#clip0_1_19)">
<rect x="2" y="2" width="40" height="40" rx="20" fill="#2873FF"/>
<rect x="6" y="17" width="32" height="33" rx="3.33333" fill="white"/>
<rect x="12" y="28" width="20" height="2" rx="1" fill="#B9D1FF"/>
<rect x="16" y="32" width="12" height="1" rx="0.5" fill="#DBE8FF"/>
<g filter="url(#filter0_d_1_19)">
<circle cx="22" cy="17" r="7" fill="white"/>
</g>
<path d="M22 17C22.9205 17 23.6667 16.2538 23.6667 15.3333C23.6667 14.4129 22.9205 13.6667 22 13.6667C21.0795 13.6667 20.3333 14.4129 20.3333 15.3333C20.3333 16.2538 21.0795 17 22 17Z" fill="#4263EB"/>
<path d="M22 17.8333C20.33 17.8333 18.97 18.9533 18.97 20.3333C18.97 20.4267 19.0433 20.5 19.1367 20.5H24.8633C24.9567 20.5 25.03 20.4267 25.03 20.3333C25.03 18.9533 23.67 17.8333 22 17.8333Z" fill="#4263EB"/>
</g>
<rect x="1" y="1" width="42" height="42" rx="21" stroke="white" stroke-width="2"/>
<defs>
<filter id="filter0_d_1_19" x="11" y="8" width="22" height="22" filterUnits="userSpaceOnUse" color-interpolation-filters="sRGB">
<feFlood flood-opacity="0" result="BackgroundImageFix"/>
<feColorMatrix in="SourceAlpha" type="matrix" values="0 0 0 0 0 0 0 0 0 0 0 0 0 0 0 0 0 0 127 0" result="hardAlpha"/>
<feOffset dy="2"/>
<feGaussianBlur stdDeviation="2"/>
<feComposite in2="hardAlpha" operator="out"/>
<feColorMatrix type="matrix" values="0 0 0 0 0.0872331 0 0 0 0 0.359128 0 0 0 0 0.866667 0 0 0 0.12 0"/>
<feBlend mode="normal" in2="BackgroundImageFix" result="effect1_dropShadow_1_19"/>
<feBlend mode="normal" in="SourceGraphic" in2="effect1_dropShadow_1_19" result="shape"/>
</filter>
<clipPath id="clip0_1_19">
<rect x="2" y="2" width="40" height="40" rx="20" fill="white"/>
</clipPath>
</defs>
</svg>
