<svg width="273" height="191" viewBox="0 0 273 191" fill="none" xmlns="http://www.w3.org/2000/svg">
<path d="M16.8171 1H6C3.23858 1 1 3.23858 1 6V16.8171" stroke="#CBD3DE" stroke-linecap="round"/>
<path d="M256.183 189.751L267 189.751C269.761 189.751 272 187.512 272 184.751L272 173.934" stroke="#CBD3DE" stroke-linecap="round"/>
<path d="M0.999999 173.934L1 184.751C1 187.512 3.23858 189.751 6 189.751L16.8171 189.751" stroke="#CBD3DE" stroke-linecap="round"/>
<path d="M272 16.8171L272 6C272 3.23858 269.761 1 267 1L256.183 0.999999" stroke="#CBD3DE" stroke-linecap="round"/>
<rect x="15" y="16.8755" width="243.868" height="157" rx="15.9391" fill="#F8FAFC"/>
<path d="M15 32.8146C15 24.0117 22.1362 16.8755 30.9391 16.8755H242.929C251.732 16.8755 258.868 24.0117 258.868 32.8146V53.5354H15V32.8146Z" fill="#2873FF"/>
<rect x="172" y="68.6776" width="69.335" height="79.6954" rx="8" fill="#DBE8FF"/>
<rect x="31.5263" y="68.6776" width="124.325" height="14.3452" rx="4" fill="#E2E8F0"/>
<rect x="44.2781" y="95.7749" width="80.4924" height="6.37564" rx="2" fill="#E2E8F0"/>
<rect x="44.2781" y="114.902" width="80.4924" height="6.37564" rx="2" fill="#E2E8F0"/>
<rect x="44.2781" y="132.56" width="80.4924" height="6.37564" rx="2" fill="#E2E8F0"/>
<mask id="mask0_416_10751" style="mask-type:alpha" maskUnits="userSpaceOnUse" x="172" y="69" width="70" height="80">
<rect x="172" y="69" width="69.335" height="79.6954" rx="8" fill="#CCCFDD"/>
</mask>
<g mask="url(#mask0_416_10751)">
<path d="M194.358 125.837C197.754 123.651 199.691 116.5 200.235 113.198H213.191C214.519 119.264 215.184 123.537 218.838 125.837C230.464 129.052 236.451 128.563 241 131.636V148.538H206.5H172V132.153C175.266 128.054 190.112 128.57 194.358 125.837Z" fill="#2873FF"/>
<rect x="187" y="74.1979" width="38" height="46" rx="19" fill="#2873FF"/>
</g>
</svg>
