<svg width="24" height="25" viewBox="0 0 24 25" fill="none" xmlns="http://www.w3.org/2000/svg">
<path d="M17 10.1124H19C21 10.1124 22 9.10113 22 7.07866V5.05618C22 3.03371 21 2.02248 19 2.02248H17C15 2.02248 14 3.03371 14 5.05618V7.07866C14 9.10113 15 10.1124 17 10.1124Z" stroke="#8E9BAE" stroke-width="1.5" stroke-miterlimit="10" stroke-linecap="round" stroke-linejoin="round"/>
<path d="M5 22.2472H7C9 22.2472 10 21.236 10 19.2135V17.191C10 15.1685 9 14.1573 7 14.1573H5C3 14.1573 2 15.1685 2 17.191V19.2135C2 21.236 3 22.2472 5 22.2472Z" stroke="#8E9BAE" stroke-width="1.5" stroke-miterlimit="10" stroke-linecap="round" stroke-linejoin="round"/>
<path d="M6 10.1124C8.20914 10.1124 10 8.30138 10 6.06742C10 3.83346 8.20914 2.02248 6 2.02248C3.79086 2.02248 2 3.83346 2 6.06742C2 8.30138 3.79086 10.1124 6 10.1124Z" stroke="#8E9BAE" stroke-width="1.5" stroke-miterlimit="10" stroke-linecap="round" stroke-linejoin="round"/>
<path d="M18 22.2472C20.2091 22.2472 22 20.4362 22 18.2022C22 15.9683 20.2091 14.1573 18 14.1573C15.7909 14.1573 14 15.9683 14 18.2022C14 20.4362 15.7909 22.2472 18 22.2472Z" stroke="#8E9BAE" stroke-width="1.5" stroke-miterlimit="10" stroke-linecap="round" stroke-linejoin="round"/>
</svg>
