<svg width="327" height="329" viewBox="0 0 327 329" fill="none" xmlns="http://www.w3.org/2000/svg">
<path d="M0 32C0 20.7989 0 15.1984 2.17987 10.9202C4.09734 7.15695 7.15695 4.09734 10.9202 2.17987C15.1984 0 20.799 0 32 0H295C306.201 0 311.802 0 316.08 2.17987C319.843 4.09734 322.903 7.15695 324.82 10.9202C327 15.1984 327 20.7989 327 32V297C327 308.201 327 313.802 324.82 318.08C322.903 321.843 319.843 324.903 316.08 326.82C311.802 329 306.201 329 295 329H32C20.7989 329 15.1984 329 10.9202 326.82C7.15695 324.903 4.09734 321.843 2.17987 318.08C0 313.802 0 308.201 0 297V32Z" fill="white"/>
<g opacity="0.2">
<rect x="16" y="72.0002" width="0.993266" height="185" fill="#DDE0E6"/>
<rect x="52.7507" y="72" width="0.993266" height="185" fill="#DDE0E6"/>
<rect x="89.5017" y="72" width="0.993266" height="185" fill="#DDE0E6"/>
<rect x="126.253" y="72" width="0.993266" height="185" fill="#DDE0E6"/>
<rect x="163.003" y="72" width="0.993266" height="185" fill="#DDE0E6"/>
<rect x="199.754" y="72" width="0.993266" height="185" fill="#DDE0E6"/>
<rect x="236.505" y="72" width="0.993266" height="185" fill="#DDE0E6"/>
<rect x="273.256" y="72" width="0.993266" height="185" fill="#DDE0E6"/>
<rect x="310.007" y="256.005" width="0.994635" height="293.013" transform="rotate(90 310.007 256.005)" fill="#DDE0E6"/>
<rect x="310.007" y="219.204" width="0.994635" height="293.013" transform="rotate(90 310.007 219.204)" fill="#DDE0E6"/>
<rect x="310.007" y="182.403" width="0.994635" height="293.013" transform="rotate(90 310.007 182.403)" fill="#DDE0E6"/>
<rect x="310.007" y="145.602" width="0.994635" height="293.013" transform="rotate(90 310.007 145.602)" fill="#DDE0E6"/>
<rect x="310.007" y="108.801" width="0.994635" height="293.013" transform="rotate(90 310.007 108.801)" fill="#DDE0E6"/>
<rect x="310.007" y="72" width="0.994635" height="293.013" transform="rotate(90 310.007 72)" fill="#DDE0E6"/>
<rect x="310.007" y="72" width="0.993266" height="185" fill="#DDE0E6"/>
</g>
<path d="M22.5 46V39" stroke="#8E9BAE" stroke-width="1.5" stroke-miterlimit="10" stroke-linecap="round" stroke-linejoin="round"/>
<path d="M22.5 29V26" stroke="#8E9BAE" stroke-width="1.5" stroke-miterlimit="10" stroke-linecap="round" stroke-linejoin="round"/>
<path d="M33.5 46V43" stroke="#8E9BAE" stroke-width="1.5" stroke-miterlimit="10" stroke-linecap="round" stroke-linejoin="round"/>
<path d="M33.5 33V26" stroke="#8E9BAE" stroke-width="1.5" stroke-miterlimit="10" stroke-linecap="round" stroke-linejoin="round"/>
<path d="M25.5 31V37C25.5 38.1 25 39 23.5 39H21.5C20 39 19.5 38.1 19.5 37V31C19.5 29.9 20 29 21.5 29H23.5C25 29 25.5 29.9 25.5 31Z" stroke="#8E9BAE" stroke-width="1.5" stroke-miterlimit="10" stroke-linecap="round" stroke-linejoin="round"/>
<path d="M36.5 35V41C36.5 42.1 36 43 34.5 43H32.5C31 43 30.5 42.1 30.5 41V35C30.5 33.9 31 33 32.5 33H34.5C36 33 36.5 33.9 36.5 35Z" stroke="#8E9BAE" stroke-width="1.5" stroke-miterlimit="10" stroke-linecap="round" stroke-linejoin="round"/>
<path d="M308 33V27H302" stroke="#8E9BAE" stroke-width="1.5" stroke-linecap="round" stroke-linejoin="round"/>
<path d="M290 39V45H296" stroke="#8E9BAE" stroke-width="1.5" stroke-linecap="round" stroke-linejoin="round"/>
<path d="M308 27L300.5 34.5" stroke="#8E9BAE" stroke-width="1.5" stroke-linecap="round" stroke-linejoin="round"/>
<path d="M297.5 37.5L290 45" stroke="#8E9BAE" stroke-width="1.5" stroke-linecap="round" stroke-linejoin="round"/>
<path d="M27.2611 237.877H16V256.098C16 256.596 16.4039 257 16.9021 257H310.098C310.596 257 311 256.596 311 256.098V136.09L298.595 151.299C298.135 151.863 297.232 151.679 297.029 150.981L291.403 131.65C291.29 131.265 290.938 131 290.536 131H274.493C274.257 131 274.031 131.093 273.862 131.258L262.87 142.024C262.606 142.282 262.211 142.353 261.874 142.204L248.966 136.498C248.473 136.28 247.901 136.539 247.74 137.052L237.748 168.856C237.534 169.539 236.647 169.712 236.192 169.16L225.518 156.218C225.109 155.721 224.327 155.801 224.025 156.369L222.441 159.358C222.186 159.839 221.567 159.986 221.123 159.672L215.566 155.741C215.135 155.436 214.535 155.565 214.268 156.02L206.109 169.87C205.908 170.211 205.509 170.381 205.124 170.29L195.803 168.093C195.34 167.983 194.871 168.253 194.733 168.709L184.313 203.106C184.233 203.37 184.036 203.583 183.779 203.684L168.721 209.601C168.305 209.765 167.832 209.599 167.609 209.211L157.119 190.945C156.765 190.33 155.872 190.345 155.539 190.972L151.073 199.396C150.967 199.596 150.79 199.749 150.577 199.824L140.522 203.38C140.265 203.471 140.063 203.673 139.972 203.93L133.979 220.888C133.88 221.169 133.648 221.383 133.36 221.459L119.724 225.076C119.533 225.127 119.364 225.238 119.243 225.394L110.195 237.031C109.851 237.473 109.192 237.498 108.815 237.084L101.955 229.535C101.659 229.209 101.171 229.145 100.8 229.382L79.4586 243.057C79.1546 243.252 78.7636 243.247 78.4649 243.044L71.3802 238.229C71.069 238.018 70.6593 238.021 70.3521 238.239L63.9018 242.801C63.7495 242.909 63.5675 242.967 63.3809 242.967H49.6438C49.4089 242.967 49.1832 242.875 49.0148 242.711L35.5963 229.661C35.2157 229.29 34.5992 229.327 34.2656 229.74L27.9629 237.542C27.7916 237.754 27.5337 237.877 27.2611 237.877Z" fill="url(#paint0_linear_1_162)"/>
<path d="M16 238.077H25.1995C25.7415 238.077 26.2547 237.833 26.5974 237.413L32.0994 230.671C32.7662 229.854 33.9889 229.781 34.7487 230.512L47.3773 242.671C47.7135 242.995 48.1621 243.176 48.6287 243.176H61.8961C62.2663 243.176 62.6277 243.062 62.931 242.85L68.8258 238.722C69.3895 238.327 70.1287 238.287 70.7315 238.62L78.0555 242.655C78.6372 242.976 79.3479 242.951 79.9057 242.59L99.4157 229.98C100.154 229.503 101.129 229.628 101.724 230.275L107.45 236.513C108.203 237.332 109.511 237.282 110.198 236.407L118.525 225.806C118.768 225.497 119.105 225.276 119.485 225.176L132.542 221.747C133.118 221.596 133.582 221.17 133.783 220.609L139.544 204.471C139.728 203.958 140.133 203.555 140.647 203.375L150.094 200.067C150.52 199.918 150.875 199.614 151.088 199.216L154.691 192.49C155.358 191.244 157.133 191.214 157.842 192.436L167.276 208.697C167.722 209.466 168.662 209.795 169.491 209.473L183.62 203.976C184.135 203.776 184.53 203.351 184.691 202.823L194.865 169.579C195.142 168.672 196.076 168.135 197 168.35L204.995 170.216C205.761 170.395 206.554 170.058 206.956 169.382L214.389 156.89C214.926 155.988 216.115 155.733 216.975 156.334L220.705 158.946C221.687 159.634 223.054 159.19 223.445 158.057L223.488 157.933C223.939 156.625 225.635 156.291 226.549 157.331L236.03 168.117C236.957 169.172 238.68 168.81 239.105 167.472L248.455 138.01C248.779 136.989 249.916 136.473 250.898 136.903L262.515 141.987C263.186 142.281 263.969 142.139 264.495 141.629L274.933 131.509C275.27 131.183 275.72 131 276.189 131H291.289C292.142 131 292.878 131.597 293.054 132.432L296.696 149.69C297.013 151.193 298.945 151.637 299.887 150.423L311 136.099" stroke="#2873FF" stroke-width="1.80428" stroke-linecap="round"/>
<path d="M182 172C182 169.791 183.791 168 186 168H202C204.209 168 206 169.791 206 172V257H182V172Z" fill="url(#paint1_linear_1_162)"/>
<rect x="16" y="273" width="68" height="32" rx="16" fill="#2873FF"/>
<path d="M39.0936 294.986V293.516L43.4056 289.673C43.7416 289.374 43.9749 289.092 44.1056 288.826C44.2362 288.56 44.3016 288.303 44.3016 288.056C44.3016 287.72 44.2292 287.421 44.0846 287.16C43.9399 286.894 43.7392 286.684 43.4826 286.53C43.2306 286.376 42.9389 286.299 42.6076 286.299C42.2576 286.299 41.9472 286.381 41.6766 286.544C41.4106 286.703 41.2029 286.915 41.0536 287.181C40.9042 287.447 40.8342 287.734 40.8436 288.042H39.1076C39.1076 287.37 39.2569 286.784 39.5556 286.285C39.8589 285.786 40.2742 285.398 40.8016 285.123C41.3336 284.848 41.9472 284.71 42.6426 284.71C43.2866 284.71 43.8652 284.855 44.3786 285.144C44.8919 285.429 45.2956 285.825 45.5896 286.334C45.8836 286.838 46.0306 287.419 46.0306 288.077C46.0306 288.558 45.9652 288.961 45.8346 289.288C45.7039 289.615 45.5079 289.916 45.2466 290.191C44.9899 290.466 44.6702 290.772 44.2876 291.108L41.2286 293.817L41.0746 293.397H46.0306V294.986H39.0936ZM51.626 295V293.334H47.16V291.759L50.387 284.92H52.312L49.085 291.759H51.626V289.134H53.334V291.759H54.279V293.334H53.334V295H51.626ZM55.9575 295V284.92H62.4675V286.502H57.6445V295H55.9575Z" fill="white"/>
<path d="M122.946 294V285.299L121.049 286.447V285.054L122.946 283.92H124.213V294H122.946ZM129.473 294V285.103H126.036V283.92H134.156V285.103H130.719V294H129.473Z" fill="#8E9BAE"/>
<path d="M173.473 294V285.299L171.576 286.447V285.054L173.473 283.92H174.74V294H173.473ZM177.404 294V283.92H178.538L182.346 291.949L186.133 283.92H187.281V293.993H186.098V286.657L182.675 294H182.01L178.587 286.657V294H177.404Z" fill="#8E9BAE"/>
<path d="M227.337 294V285.299L225.44 286.447V285.054L227.337 283.92H228.604V294H227.337ZM231.267 294V283.92H235.25C235.348 283.92 235.465 283.925 235.6 283.934C235.735 283.939 235.866 283.953 235.992 283.976C236.538 284.06 236.995 284.247 237.364 284.536C237.737 284.825 238.017 285.192 238.204 285.635C238.391 286.074 238.484 286.561 238.484 287.098C238.484 287.63 238.388 288.118 238.197 288.561C238.01 289 237.73 289.366 237.357 289.66C236.988 289.949 236.533 290.136 235.992 290.22C235.866 290.239 235.735 290.253 235.6 290.262C235.465 290.271 235.348 290.276 235.25 290.276H232.513V294H231.267ZM232.513 289.093H235.208C235.297 289.093 235.397 289.088 235.509 289.079C235.626 289.07 235.735 289.053 235.838 289.03C236.16 288.955 236.421 288.82 236.622 288.624C236.827 288.423 236.977 288.19 237.07 287.924C237.163 287.653 237.21 287.378 237.21 287.098C237.21 286.818 237.163 286.545 237.07 286.279C236.977 286.008 236.827 285.773 236.622 285.572C236.421 285.371 236.16 285.236 235.838 285.166C235.735 285.138 235.626 285.122 235.509 285.117C235.397 285.108 235.297 285.103 235.208 285.103H232.513V289.093Z" fill="#8E9BAE"/>
<path d="M277.656 294L278.86 291.501L275.311 283.92H276.704L279.511 290.171L282.381 283.92H283.711L279.007 294H277.656ZM286.936 294.21C286.17 294.21 285.519 294.04 284.983 293.699C284.451 293.354 284.045 292.88 283.765 292.278C283.485 291.676 283.34 290.99 283.331 290.22C283.34 289.431 283.487 288.738 283.772 288.141C284.061 287.539 284.474 287.07 285.011 286.734C285.547 286.398 286.194 286.23 286.95 286.23C287.748 286.23 288.434 286.426 289.008 286.818C289.586 287.21 289.974 287.747 290.17 288.428L288.938 288.799C288.779 288.36 288.52 288.02 288.161 287.777C287.806 287.534 287.398 287.413 286.936 287.413C286.418 287.413 285.991 287.534 285.655 287.777C285.319 288.015 285.069 288.346 284.906 288.771C284.742 289.191 284.658 289.674 284.654 290.22C284.663 291.06 284.857 291.739 285.235 292.257C285.617 292.77 286.184 293.027 286.936 293.027C287.43 293.027 287.841 292.915 288.168 292.691C288.494 292.462 288.742 292.133 288.91 291.704L290.17 292.033C289.908 292.738 289.5 293.277 288.945 293.65C288.389 294.023 287.72 294.21 286.936 294.21ZM291.533 285.103V283.815H292.779V285.103H291.533ZM291.533 294V286.44H292.779V294H291.533Z" fill="#8E9BAE"/>
<rect x="96" y="119" width="96" height="34" rx="17" fill="#2873FF"/>
<path d="M113.23 141.162C112.798 141.162 112.39 141.078 112.006 140.91C111.622 140.742 111.288 140.504 111.004 140.196C110.724 139.888 110.522 139.524 110.398 139.104L111.796 138.726C111.896 139.07 112.078 139.336 112.342 139.524C112.61 139.708 112.904 139.798 113.224 139.794C113.508 139.794 113.762 139.728 113.986 139.596C114.21 139.464 114.386 139.286 114.514 139.062C114.642 138.834 114.706 138.58 114.706 138.3C114.706 137.872 114.568 137.514 114.292 137.226C114.016 136.938 113.66 136.794 113.224 136.794C113.092 136.794 112.962 136.812 112.834 136.848C112.71 136.884 112.59 136.934 112.474 136.998L111.814 135.858L114.718 133.374L114.844 133.722H110.734V132.36H116.032V133.728L113.698 135.972L113.686 135.546C114.21 135.582 114.656 135.728 115.024 135.984C115.396 136.24 115.68 136.57 115.876 136.974C116.076 137.378 116.176 137.82 116.176 138.3C116.176 138.844 116.042 139.332 115.774 139.764C115.51 140.196 115.154 140.538 114.706 140.79C114.262 141.038 113.77 141.162 113.23 141.162ZM120.839 141.18C120.227 141.18 119.687 141.05 119.219 140.79C118.751 140.526 118.385 140.16 118.121 139.692C117.861 139.224 117.731 138.684 117.731 138.072V135.288C117.731 134.676 117.861 134.136 118.121 133.668C118.385 133.2 118.751 132.836 119.219 132.576C119.687 132.312 120.227 132.18 120.839 132.18C121.451 132.18 121.989 132.312 122.453 132.576C122.921 132.836 123.287 133.2 123.551 133.668C123.815 134.136 123.947 134.676 123.947 135.288V138.072C123.947 138.684 123.815 139.224 123.551 139.692C123.287 140.16 122.921 140.526 122.453 140.79C121.989 141.05 121.451 141.18 120.839 141.18ZM120.839 139.806C121.143 139.806 121.419 139.734 121.667 139.59C121.915 139.442 122.111 139.246 122.255 139.002C122.399 138.754 122.471 138.478 122.471 138.174V135.18C122.471 134.872 122.399 134.596 122.255 134.352C122.111 134.104 121.915 133.908 121.667 133.764C121.419 133.616 121.143 133.542 120.839 133.542C120.535 133.542 120.259 133.616 120.011 133.764C119.763 133.908 119.567 134.104 119.423 134.352C119.279 134.596 119.207 134.872 119.207 135.18V138.174C119.207 138.478 119.279 138.754 119.423 139.002C119.567 139.246 119.763 139.442 120.011 139.59C120.259 139.734 120.535 139.806 120.839 139.806ZM125.509 142.53L125.593 141.906C125.777 141.922 125.923 141.89 126.031 141.81C126.139 141.734 126.211 141.624 126.247 141.48C126.287 141.34 126.297 141.18 126.277 141H125.509V139.458H126.991V141.06C126.991 141.584 126.867 141.98 126.619 142.248C126.371 142.516 126.001 142.61 125.509 142.53ZM131.064 132.192C131.628 132.192 132.136 132.326 132.588 132.594C133.04 132.858 133.396 133.226 133.656 133.698C133.92 134.166 134.052 134.706 134.052 135.318V137.952C134.052 138.604 133.92 139.174 133.656 139.662C133.396 140.146 133.03 140.52 132.558 140.784C132.086 141.048 131.534 141.18 130.902 141.18C130.466 141.18 130.054 141.106 129.666 140.958C129.278 140.806 128.93 140.574 128.622 140.262L129.66 139.248C129.816 139.428 130.002 139.57 130.218 139.674C130.438 139.774 130.666 139.824 130.902 139.824C131.238 139.824 131.532 139.746 131.784 139.59C132.036 139.43 132.232 139.224 132.372 138.972C132.512 138.716 132.582 138.442 132.582 138.15V136.716L132.84 137.004C132.596 137.292 132.3 137.518 131.952 137.682C131.604 137.842 131.238 137.922 130.854 137.922C130.314 137.922 129.834 137.798 129.414 137.55C128.998 137.302 128.67 136.966 128.43 136.542C128.194 136.114 128.076 135.63 128.076 135.09C128.076 134.55 128.212 134.062 128.484 133.626C128.756 133.186 129.118 132.838 129.57 132.582C130.026 132.322 130.524 132.192 131.064 132.192ZM131.064 133.572C130.784 133.572 130.528 133.64 130.296 133.776C130.064 133.912 129.88 134.096 129.744 134.328C129.608 134.556 129.54 134.81 129.54 135.09C129.54 135.37 129.606 135.626 129.738 135.858C129.874 136.09 130.056 136.274 130.284 136.41C130.516 136.546 130.772 136.614 131.052 136.614C131.332 136.614 131.588 136.546 131.82 136.41C132.052 136.274 132.236 136.09 132.372 135.858C132.512 135.626 132.582 135.37 132.582 135.09C132.582 134.818 132.514 134.568 132.378 134.34C132.242 134.108 132.058 133.922 131.826 133.782C131.598 133.642 131.344 133.572 131.064 133.572ZM138.553 141.18C137.981 141.18 137.473 141.064 137.029 140.832C136.585 140.6 136.237 140.278 135.985 139.866C135.733 139.454 135.607 138.982 135.607 138.45C135.607 137.974 135.717 137.532 135.937 137.124C136.157 136.716 136.479 136.39 136.903 136.146L136.873 136.608C136.541 136.356 136.283 136.066 136.099 135.738C135.919 135.406 135.829 135.034 135.829 134.622C135.829 134.126 135.945 133.696 136.177 133.332C136.413 132.968 136.735 132.686 137.143 132.486C137.551 132.282 138.021 132.18 138.553 132.18C139.085 132.18 139.555 132.282 139.963 132.486C140.375 132.686 140.697 132.968 140.929 133.332C141.165 133.696 141.283 134.126 141.283 134.622C141.283 135.034 141.195 135.404 141.019 135.732C140.847 136.06 140.585 136.356 140.233 136.62L140.227 136.152C140.643 136.388 140.961 136.712 141.181 137.124C141.405 137.532 141.517 137.974 141.517 138.45C141.517 138.982 141.389 139.454 141.133 139.866C140.881 140.278 140.531 140.6 140.083 140.832C139.639 141.064 139.129 141.18 138.553 141.18ZM138.553 139.818C138.977 139.818 139.321 139.702 139.585 139.47C139.853 139.238 139.987 138.898 139.987 138.45C139.987 138.002 139.855 137.662 139.591 137.43C139.327 137.194 138.981 137.076 138.553 137.076C138.129 137.076 137.787 137.194 137.527 137.43C137.267 137.662 137.137 138.002 137.137 138.45C137.137 138.898 137.267 139.238 137.527 139.47C137.787 139.702 138.129 139.818 138.553 139.818ZM138.553 135.702C138.909 135.702 139.197 135.614 139.417 135.438C139.641 135.258 139.753 134.986 139.753 134.622C139.753 134.258 139.641 133.988 139.417 133.812C139.197 133.632 138.909 133.542 138.553 133.542C138.201 133.542 137.913 133.632 137.689 133.812C137.469 133.988 137.359 134.258 137.359 134.622C137.359 134.986 137.469 135.258 137.689 135.438C137.913 135.614 138.201 135.702 138.553 135.702ZM143.512 141L146.488 133.728H142.714V132.36H148.036V133.728L145.072 141H143.512ZM149.713 141V139.518H151.195V141H149.713ZM157.225 141.18C156.613 141.18 156.073 141.05 155.605 140.79C155.137 140.526 154.771 140.16 154.507 139.692C154.247 139.224 154.117 138.684 154.117 138.072V135.288C154.117 134.676 154.247 134.136 154.507 133.668C154.771 133.2 155.137 132.836 155.605 132.576C156.073 132.312 156.613 132.18 157.225 132.18C157.837 132.18 158.375 132.312 158.839 132.576C159.307 132.836 159.673 133.2 159.937 133.668C160.201 134.136 160.333 134.676 160.333 135.288V138.072C160.333 138.684 160.201 139.224 159.937 139.692C159.673 140.16 159.307 140.526 158.839 140.79C158.375 141.05 157.837 141.18 157.225 141.18ZM157.225 139.806C157.529 139.806 157.805 139.734 158.053 139.59C158.301 139.442 158.497 139.246 158.641 139.002C158.785 138.754 158.857 138.478 158.857 138.174V135.18C158.857 134.872 158.785 134.596 158.641 134.352C158.497 134.104 158.301 133.908 158.053 133.764C157.805 133.616 157.529 133.542 157.225 133.542C156.921 133.542 156.645 133.616 156.397 133.764C156.149 133.908 155.953 134.104 155.809 134.352C155.665 134.596 155.593 134.872 155.593 135.18V138.174C155.593 138.478 155.665 138.754 155.809 139.002C155.953 139.246 156.149 139.442 156.397 139.59C156.645 139.734 156.921 139.806 157.225 139.806ZM165.124 141.18C164.512 141.18 163.972 141.05 163.504 140.79C163.036 140.526 162.67 140.16 162.406 139.692C162.146 139.224 162.016 138.684 162.016 138.072V135.288C162.016 134.676 162.146 134.136 162.406 133.668C162.67 133.2 163.036 132.836 163.504 132.576C163.972 132.312 164.512 132.18 165.124 132.18C165.736 132.18 166.274 132.312 166.738 132.576C167.206 132.836 167.572 133.2 167.836 133.668C168.1 134.136 168.232 134.676 168.232 135.288V138.072C168.232 138.684 168.1 139.224 167.836 139.692C167.572 140.16 167.206 140.526 166.738 140.79C166.274 141.05 165.736 141.18 165.124 141.18ZM165.124 139.806C165.428 139.806 165.704 139.734 165.952 139.59C166.2 139.442 166.396 139.246 166.54 139.002C166.684 138.754 166.756 138.478 166.756 138.174V135.18C166.756 134.872 166.684 134.596 166.54 134.352C166.396 134.104 166.2 133.908 165.952 133.764C165.704 133.616 165.428 133.542 165.124 133.542C164.82 133.542 164.544 133.616 164.296 133.764C164.048 133.908 163.852 134.104 163.708 134.352C163.564 134.596 163.492 134.872 163.492 135.18V138.174C163.492 138.478 163.564 138.754 163.708 139.002C163.852 139.246 164.048 139.442 164.296 139.59C164.544 139.734 164.82 139.806 165.124 139.806ZM175.227 141.18C174.927 141.18 174.627 141.142 174.327 141.066C174.027 140.994 173.769 140.896 173.553 140.772C173.177 140.56 172.885 140.268 172.677 139.896C172.473 139.52 172.371 139.122 172.371 138.702C172.371 138.41 172.425 138.132 172.533 137.868C172.641 137.604 172.805 137.36 173.025 137.136C173.037 137.128 173.051 137.116 173.067 137.1C173.083 137.084 173.123 137.044 173.187 136.98H176.331C176.051 137.156 175.799 137.288 175.575 137.376C175.351 137.46 175.139 137.54 174.939 137.616C174.743 137.688 174.545 137.794 174.345 137.934C174.185 138.054 174.069 138.17 173.997 138.282C173.929 138.394 173.895 138.54 173.895 138.72C173.895 138.892 173.925 139.042 173.985 139.17C174.049 139.298 174.149 139.412 174.285 139.512C174.441 139.628 174.603 139.706 174.771 139.746C174.939 139.786 175.093 139.806 175.233 139.806C175.485 139.806 175.707 139.752 175.899 139.644C176.091 139.532 176.263 139.368 176.415 139.152C176.463 139.092 176.503 139.024 176.535 138.948C176.571 138.868 176.597 138.79 176.613 138.714H178.101C178.085 138.91 178.037 139.116 177.957 139.332C177.877 139.544 177.777 139.74 177.657 139.92C177.389 140.336 177.039 140.65 176.607 140.862C176.175 141.074 175.715 141.18 175.227 141.18ZM171.939 138.114V136.98H178.533V138.114H171.939ZM171.945 136.374L171.939 135.24H178.533V136.374H171.945ZM174.213 136.374C174.365 136.294 174.545 136.21 174.753 136.122C174.965 136.03 175.177 135.936 175.389 135.84C175.601 135.744 175.791 135.644 175.959 135.54C176.127 135.432 176.245 135.32 176.313 135.204C176.377 135.116 176.419 135.022 176.439 134.922C176.459 134.822 176.469 134.732 176.469 134.652C176.469 134.496 176.445 134.362 176.397 134.25C176.349 134.134 176.279 134.028 176.187 133.932C176.079 133.816 175.947 133.724 175.791 133.656C175.635 133.588 175.469 133.554 175.293 133.554C175.057 133.554 174.855 133.608 174.687 133.716C174.523 133.824 174.393 133.944 174.297 134.076C174.229 134.168 174.177 134.262 174.141 134.358C174.105 134.454 174.079 134.55 174.063 134.646H172.539C172.563 134.382 172.625 134.128 172.725 133.884C172.825 133.64 172.945 133.426 173.085 133.242C173.337 132.902 173.655 132.64 174.039 132.456C174.427 132.272 174.845 132.18 175.293 132.18C175.661 132.18 176.013 132.242 176.349 132.366C176.689 132.486 176.977 132.656 177.213 132.876C177.449 133.092 177.637 133.362 177.777 133.686C177.921 134.01 177.993 134.34 177.993 134.676C177.993 134.904 177.955 135.134 177.879 135.366C177.807 135.598 177.701 135.816 177.561 136.02C177.469 136.152 177.367 136.27 177.255 136.374H174.213Z" fill="white"/>
<circle cx="194" cy="168" r="5" fill="#2873FF" stroke="white" stroke-width="2"/>
<defs>
<linearGradient id="paint0_linear_1_162" x1="190" y1="75" x2="190" y2="235" gradientUnits="userSpaceOnUse">
<stop stop-color="#2873FF" stop-opacity="0.26"/>
<stop offset="1" stop-color="#2873FF" stop-opacity="0"/>
</linearGradient>
<linearGradient id="paint1_linear_1_162" x1="194" y1="116" x2="194" y2="260.5" gradientUnits="userSpaceOnUse">
<stop stop-color="#2873FF" stop-opacity="0.5"/>
<stop offset="1" stop-color="#2873FF" stop-opacity="0"/>
</linearGradient>
</defs>
</svg>
