<svg width="275" height="341" viewBox="0 0 275 341" fill="none" xmlns="http://www.w3.org/2000/svg">
<path d="M35.875 2H27.6C18.6392 2 14.1587 2 10.7362 3.7439C7.72556 5.27787 5.27787 7.72556 3.7439 10.7362C2 14.1587 2 18.6392 2 27.6V44.125M103.625 2H137.5H171.375M239.125 2H247.4C256.361 2 260.841 2 264.264 3.7439C267.274 5.27787 269.722 7.72556 271.256 10.7362C273 14.1587 273 18.6392 273 27.6V44.125M273 128.375V170.5V212.625M273 296.875V313.4C273 322.361 273 326.841 271.256 330.264C269.722 333.274 267.274 335.722 264.264 337.256C260.841 339 256.361 339 247.4 339H239.125M171.375 339H137.5H103.625M35.875 339H27.6C18.6392 339 14.1587 339 10.7362 337.256C7.72556 335.722 5.27787 333.274 3.7439 330.264C2 326.841 2 322.361 2 313.4V296.875M2 128.375V170.5V212.625" stroke="white" stroke-width="3"/>
</svg>
