<svg width="44" height="44" viewBox="0 0 44 44" fill="none" xmlns="http://www.w3.org/2000/svg">
<g clip-path="url(#clip0_1_30)">
<rect x="2" y="2" width="40" height="40" rx="20" fill="#2873FF"/>
<rect x="6" y="15" width="32" height="33" rx="3.33333" fill="white"/>
<rect x="10" y="25" width="14" height="2" rx="1" fill="#B9D1FF"/>
<rect x="10" y="29" width="12" height="1" rx="0.5" fill="#DBE8FF"/>
<rect x="10" y="32" width="16" height="1" rx="0.5" fill="#DBE8FF"/>
<g filter="url(#filter0_d_1_30)">
<circle cx="33" cy="17" r="8" fill="white"/>
</g>
<path d="M34 12.5V14.5C34 14.6326 34.0527 14.7598 34.1465 14.8536C34.2403 14.9473 34.3674 15 34.5 15H36.5001" stroke="#2873FF" stroke-linecap="round" stroke-linejoin="round"/>
<path d="M35.5 21.5H30.5C30.2348 21.5 29.9805 21.3946 29.7929 21.2071C29.6054 21.0196 29.5 20.7652 29.5 20.5V13.5C29.5 13.2348 29.6054 12.9804 29.7929 12.7929C29.9805 12.6054 30.2348 12.5 30.5 12.5H34L36.5 15V20.5C36.5 20.7652 36.3947 21.0196 36.2072 21.2071C36.0196 21.3946 35.7653 21.5 35.5 21.5Z" stroke="#2873FF" stroke-linecap="round" stroke-linejoin="round"/>
<path d="M31.5 15.5H32" stroke="#2873FF" stroke-linecap="round" stroke-linejoin="round"/>
<path d="M31.5 17.5H34.5" stroke="#2873FF" stroke-linecap="round" stroke-linejoin="round"/>
<path d="M31.5 19.5H34.5" stroke="#2873FF" stroke-linecap="round" stroke-linejoin="round"/>
</g>
<rect x="1" y="1" width="42" height="42" rx="21" stroke="white" stroke-width="2"/>
<defs>
<filter id="filter0_d_1_30" x="21" y="7" width="24" height="24" filterUnits="userSpaceOnUse" color-interpolation-filters="sRGB">
<feFlood flood-opacity="0" result="BackgroundImageFix"/>
<feColorMatrix in="SourceAlpha" type="matrix" values="0 0 0 0 0 0 0 0 0 0 0 0 0 0 0 0 0 0 127 0" result="hardAlpha"/>
<feOffset dy="2"/>
<feGaussianBlur stdDeviation="2"/>
<feComposite in2="hardAlpha" operator="out"/>
<feColorMatrix type="matrix" values="0 0 0 0 0.0872331 0 0 0 0 0.359128 0 0 0 0 0.866667 0 0 0 0.12 0"/>
<feBlend mode="normal" in2="BackgroundImageFix" result="effect1_dropShadow_1_30"/>
<feBlend mode="normal" in="SourceGraphic" in2="effect1_dropShadow_1_30" result="shape"/>
</filter>
<clipPath id="clip0_1_30">
<rect x="2" y="2" width="40" height="40" rx="20" fill="white"/>
</clipPath>
</defs>
</svg>
