<svg width="24" height="26" viewBox="0 0 24 26" fill="none" xmlns="http://www.w3.org/2000/svg">
<path d="M20.83 8.96517L14.28 3.6663C13 2.63484 11 2.62472 9.73 3.65618L3.18 8.96517C2.24 9.7236 1.67 11.2405 1.87 12.4337L3.13 20.0584C3.42 21.7674 4.99 23.1124 6.7 23.1124H17.3C18.99 23.1124 20.59 21.7371 20.88 20.0483L22.14 12.4236C22.32 11.2405 21.75 9.7236 20.83 8.96517ZM12.75 19.0674C12.75 19.482 12.41 19.8258 12 19.8258C11.59 19.8258 11.25 19.482 11.25 19.0674V16.0337C11.25 15.6191 11.59 15.2753 12 15.2753C12.41 15.2753 12.75 15.6191 12.75 16.0337V19.0674Z" fill="#2873FF"/>
</svg>
