<svg width="44" height="44" viewBox="0 0 44 44" fill="none" xmlns="http://www.w3.org/2000/svg">
<g clip-path="url(#clip0_1_5)">
<rect x="2" y="2" width="40" height="40" rx="20" fill="#2873FF"/>
<rect x="10" y="12" width="24" height="33" rx="3.33333" fill="white"/>
<rect x="17" y="14" width="10" height="2" rx="1" fill="#B9D1FF"/>
<path d="M22.0001 20.875C20.7887 20.875 19.6045 21.2342 18.5972 21.9072C17.59 22.5803 16.8049 23.5368 16.3413 24.656C15.8777 25.7752 15.7564 27.0068 15.9928 28.1949C16.2291 29.383 16.8125 30.4744 17.6691 31.331C18.5257 32.1876 19.617 32.771 20.8052 33.0073C21.9933 33.2436 23.2248 33.1223 24.344 32.6587C25.4632 32.1952 26.4198 31.4101 27.0928 30.4028C27.7659 29.3956 28.1251 28.2114 28.1251 27C28.1232 25.3761 27.4773 23.8193 26.3291 22.671C25.1808 21.5227 23.624 20.8768 22.0001 20.875V20.875ZM16.7588 27.1724L17.3442 27.3675L18.0626 28.445V29.0064C18.0626 29.1224 18.1087 29.2336 18.1908 29.3157L19.3751 30.5V31.5399C18.6042 31.0938 17.9595 30.4588 17.5018 29.6947C17.0441 28.9306 16.7884 28.0626 16.7588 27.1724V27.1724ZM22.0001 32.25C21.6216 32.2492 21.2443 32.2074 20.8748 32.1253L21.1251 31.375L21.9148 29.401C21.9411 29.3351 21.951 29.2638 21.9436 29.1932C21.9362 29.1226 21.9117 29.0549 21.8723 28.9959L21.255 28.0697C21.2151 28.0098 21.1609 27.9607 21.0974 27.9267C21.0339 27.8927 20.963 27.875 20.891 27.875H18.7342L18.1882 27.0555L19.1187 26.125H19.8126V27H20.6876V25.8039L22.3798 22.842L21.6203 22.408L21.2463 23.0625H20.0467L19.572 22.3498C20.2098 22.0132 20.9107 21.8133 21.6301 21.7627C22.3495 21.7122 23.0715 21.8122 23.7501 22.0562V23.5C23.7501 23.616 23.7962 23.7273 23.8782 23.8093C23.9603 23.8914 24.0716 23.9375 24.1876 23.9375H24.8285C24.9005 23.9375 24.9714 23.9197 25.0349 23.8858C25.0984 23.8518 25.1526 23.8027 25.1925 23.7428L25.5762 23.167C26.0759 23.6331 26.4801 24.192 26.7662 24.8125H24.9838C24.8827 24.8125 24.7848 24.8476 24.7066 24.9117C24.6285 24.9759 24.5749 25.0651 24.5551 25.1642L24.2388 27.1199C24.2238 27.2119 24.2387 27.3064 24.2812 27.3894C24.3237 27.4724 24.3916 27.5397 24.475 27.5814L25.9376 28.3125L26.2373 30.087C25.7517 30.7562 25.1146 31.301 24.3782 31.6769C23.6418 32.0528 22.8269 32.2492 22.0001 32.25V32.25Z" fill="#2873FF"/>
</g>
<rect x="1" y="1" width="42" height="42" rx="21" stroke="white" stroke-width="2"/>
<defs>
<clipPath id="clip0_1_5">
<rect x="2" y="2" width="40" height="40" rx="20" fill="white"/>
</clipPath>
</defs>
</svg>
