<svg width="65" height="16" viewBox="0 0 65 16" fill="none" xmlns="http://www.w3.org/2000/svg">
<g clip-path="url(#clip0_416_13315)">
<path d="M24.2323 3.27222H20.6954C20.5783 3.27215 20.4651 3.31129 20.376 3.38258C20.287 3.45387 20.228 3.55263 20.2098 3.66107L18.7793 12.1639C18.7727 12.2033 18.7753 12.2436 18.787 12.282C18.7986 12.3205 18.819 12.3561 18.8467 12.3864C18.8744 12.4167 18.9088 12.441 18.9476 12.4577C18.9863 12.4743 19.0284 12.4829 19.071 12.4829H20.7595C20.8767 12.4829 20.99 12.4437 21.0791 12.3723C21.1681 12.3009 21.227 12.2021 21.2452 12.0935L21.631 9.80022C21.6491 9.69178 21.7079 9.59297 21.7969 9.52159C21.8858 9.45021 21.999 9.41095 22.1161 9.41088H23.2358C25.5656 9.41088 26.9103 8.35391 27.2614 6.25937C27.4197 5.343 27.2681 4.623 26.8105 4.11876C26.3078 3.56507 25.4162 3.27222 24.2323 3.27222ZM24.6404 6.37767C24.447 7.56749 23.4773 7.56749 22.5396 7.56749H22.0059L22.3804 5.34543C22.3913 5.28042 22.4267 5.22121 22.48 5.17846C22.5334 5.13571 22.6013 5.11222 22.6715 5.11222H22.9161C23.5549 5.11222 24.1574 5.11222 24.4687 5.45355C24.6544 5.65719 24.7113 5.95973 24.6404 6.37767ZM34.8049 6.33937H33.1112C33.041 6.33937 32.9731 6.36286 32.9197 6.40561C32.8663 6.44836 32.8309 6.50757 32.82 6.57258L32.745 7.0167L32.6266 6.85573C32.2599 6.35682 31.4422 6.19003 30.6261 6.19003C28.7545 6.19003 27.1559 7.519 26.8446 9.38325C26.6827 10.3132 26.9129 11.2024 27.4755 11.8225C27.9917 12.3927 28.7302 12.6303 29.6089 12.6303C31.1169 12.6303 31.9532 11.7212 31.9532 11.7212L31.8777 12.1624C31.871 12.2018 31.8734 12.2422 31.885 12.2807C31.8965 12.3191 31.9167 12.3548 31.9443 12.3852C31.972 12.4156 32.0063 12.4401 32.045 12.4568C32.0836 12.4736 32.1257 12.4823 32.1684 12.4824H33.694C33.8112 12.4824 33.9245 12.4432 34.0136 12.3719C34.1026 12.3005 34.1615 12.2016 34.1796 12.0931L35.095 6.6584C35.1018 6.61904 35.0993 6.57878 35.0878 6.54039C35.0763 6.50201 35.0561 6.46642 35.0285 6.43609C35.0009 6.40575 34.9667 6.3814 34.928 6.3647C34.8894 6.348 34.8474 6.33936 34.8049 6.33937ZM32.444 9.42979C32.2806 10.3369 31.5126 10.9459 30.5331 10.9459C30.0412 10.9459 29.6482 10.798 29.3958 10.5178C29.1455 10.2395 29.0503 9.84337 29.13 9.40216C29.2825 8.50276 30.0635 7.87391 31.028 7.87391C31.509 7.87391 31.8999 8.02373 32.1575 8.3064C32.4156 8.59197 32.518 8.99052 32.444 9.42979ZM43.8254 6.33937H42.1234C42.0431 6.33949 41.9641 6.35796 41.8932 6.3932C41.8222 6.42843 41.7616 6.47935 41.7164 6.54155L39.3689 9.78325L38.3739 6.6681C38.3433 6.57308 38.281 6.48982 38.196 6.43061C38.1111 6.37141 38.0081 6.33942 37.9022 6.33937H36.2297C36.1827 6.33925 36.1365 6.34965 36.0947 6.3697C36.0529 6.38974 36.0168 6.41886 35.9894 6.45462C35.962 6.49038 35.9442 6.53175 35.9373 6.57529C35.9304 6.61884 35.9348 6.66329 35.9499 6.70494L37.8247 11.8628L36.0621 14.1954C36.0308 14.2367 36.0122 14.2854 36.0084 14.336C36.0046 14.3866 36.0158 14.4372 36.0406 14.4822C36.0654 14.5273 36.103 14.5651 36.1492 14.5914C36.1954 14.6178 36.2485 14.6318 36.3026 14.6317H38.0026C38.0819 14.6318 38.1601 14.6139 38.2305 14.5794C38.3008 14.545 38.3612 14.495 38.4065 14.4339L44.0674 6.77331C44.0981 6.73186 44.1161 6.68333 44.1195 6.63298C44.1228 6.58263 44.1114 6.53238 44.0865 6.48767C44.0616 6.44296 44.024 6.40551 43.978 6.37937C43.932 6.35322 43.8792 6.33939 43.8254 6.33937Z" fill="#253B80"/>
<path d="M49.4606 3.27221H45.9231C45.8061 3.27226 45.693 3.31145 45.6041 3.38273C45.5151 3.45402 45.4563 3.55271 45.438 3.66106L44.0075 12.1638C44.0009 12.2032 44.0034 12.2435 44.015 12.2819C44.0265 12.3203 44.0468 12.3558 44.0744 12.3862C44.102 12.4165 44.1363 12.4408 44.175 12.4575C44.2136 12.4742 44.2556 12.4829 44.2982 12.4829H46.1134C46.1953 12.4828 46.2745 12.4553 46.3367 12.4053C46.3989 12.3554 46.44 12.2862 46.4527 12.2104L46.8587 9.80021C46.8768 9.69177 46.9356 9.59296 47.0246 9.52158C47.1135 9.4502 47.2267 9.41094 47.3438 9.41088H48.463C50.7933 9.41088 52.1375 8.35391 52.4891 6.25936C52.6479 5.343 52.4953 4.623 52.0376 4.11876C51.5355 3.56506 50.6444 3.27221 49.4606 3.27221ZM49.8686 6.37767C49.6757 7.56749 48.706 7.56749 47.7679 7.56749H47.2347L47.6096 5.34543C47.6204 5.28041 47.6556 5.22116 47.7089 5.17838C47.7622 5.1356 47.8301 5.11213 47.9003 5.11221H48.1449C48.7831 5.11221 49.3861 5.11221 49.6974 5.45355C49.8831 5.65718 49.9395 5.95973 49.8686 6.37767ZM60.0326 6.33936H58.3399C58.2697 6.33918 58.2018 6.36262 58.1484 6.40542C58.0951 6.44821 58.0599 6.50752 58.0492 6.57258L57.9743 7.0167L57.8553 6.85573C57.4886 6.35682 56.6715 6.19003 55.8554 6.19003C53.9838 6.19003 52.3857 7.519 52.0744 9.38324C51.913 10.3132 52.1421 11.2024 52.7048 11.8225C53.222 12.3927 53.9595 12.6303 54.8381 12.6303C56.3462 12.6303 57.1825 11.7212 57.1825 11.7212L57.107 12.1624C57.1002 12.2019 57.1027 12.2424 57.1143 12.2809C57.1258 12.3194 57.1462 12.3551 57.1739 12.3856C57.2017 12.416 57.2361 12.4404 57.2749 12.4571C57.3137 12.4739 57.3559 12.4825 57.3986 12.4824H58.9238C59.0409 12.4823 59.1541 12.4431 59.243 12.3717C59.3319 12.3003 59.3908 12.2015 59.4089 12.0931L60.3248 6.65839C60.3313 6.61891 60.3286 6.57858 60.3169 6.54016C60.3052 6.50175 60.2847 6.46617 60.257 6.43586C60.2292 6.40555 60.1948 6.38123 60.1561 6.36457C60.1173 6.34792 60.0752 6.33932 60.0326 6.33936ZM57.6717 9.42979C57.5093 10.3369 56.7403 10.9459 55.7608 10.9459C55.27 10.9459 54.8759 10.798 54.6235 10.5178C54.3732 10.2395 54.2791 9.84336 54.3577 9.40215C54.5113 8.50276 55.2912 7.87391 56.2557 7.87391C56.7367 7.87391 57.1276 8.02373 57.3852 8.30639C57.6443 8.59197 57.7467 8.99052 57.6717 9.42979ZM62.0294 3.50543L60.5777 12.1638C60.571 12.2032 60.5736 12.2435 60.5851 12.2819C60.5967 12.3203 60.617 12.3558 60.6446 12.3862C60.6722 12.4165 60.7065 12.4408 60.7451 12.4575C60.7838 12.4742 60.8258 12.4829 60.8684 12.4829H62.3278C62.5704 12.4829 62.7762 12.318 62.8134 12.0935L64.245 3.59124C64.2516 3.55183 64.2491 3.51154 64.2375 3.47313C64.226 3.43473 64.2057 3.39912 64.1781 3.36876C64.1505 3.3384 64.1162 3.31401 64.0775 3.29726C64.0389 3.28051 63.9969 3.2718 63.9543 3.27173H62.32C62.2499 3.27196 62.1821 3.29561 62.1288 3.33843C62.0756 3.38125 62.0403 3.44045 62.0294 3.50543Z" fill="#179BD7"/>
<path d="M4.09119 14.1351L4.36167 12.5245L3.75917 12.5114H0.882141L2.88153 0.626279C2.88748 0.589965 2.90715 0.556865 2.93696 0.533013C2.96677 0.509162 3.00473 0.496146 3.04392 0.49634H7.89499C9.50546 0.49634 10.6169 0.810522 11.1971 1.43064C11.4692 1.72155 11.6424 2.02555 11.7262 2.3601C11.8141 2.71113 11.8157 3.13052 11.7298 3.64204L11.7236 3.67937V4.00713L11.9956 4.15161C12.2033 4.25025 12.39 4.38368 12.5464 4.54531C12.7792 4.79404 12.9297 5.11016 12.9933 5.48495C13.0589 5.8704 13.0372 6.32907 12.9297 6.84834C12.8055 7.44567 12.6049 7.96592 12.3339 8.39161C12.0948 8.77297 11.7733 9.10326 11.39 9.36131C11.0301 9.60082 10.6024 9.78264 10.1188 9.899C9.65027 10.0134 9.11603 10.0711 8.53008 10.0711H8.15254C7.88258 10.0711 7.62037 10.1623 7.41454 10.3257C7.209 10.4908 7.07264 10.719 7.02976 10.9696L7.00132 11.1145L6.52345 13.9533L6.50173 14.0576C6.49604 14.0905 6.48621 14.107 6.47173 14.1182C6.45771 14.1289 6.4402 14.1349 6.42208 14.1351H4.09119Z" fill="#253B80"/>
<path d="M12.2531 3.71729C12.2386 3.80407 12.2221 3.8928 12.2034 3.98395C11.5637 7.06322 9.37502 8.12698 6.57971 8.12698H5.15645C4.8146 8.12698 4.52654 8.35971 4.47327 8.67583L3.74458 13.0084L3.53822 14.2366C3.53 14.2853 3.53314 14.3351 3.54742 14.3825C3.5617 14.43 3.58679 14.474 3.62095 14.5115C3.65511 14.549 3.69753 14.5792 3.7453 14.5998C3.79307 14.6205 3.84505 14.6312 3.89766 14.6312H6.42197C6.7209 14.6312 6.97483 14.4276 7.02189 14.1512L7.04672 14.031L7.522 11.2033L7.55251 11.0482C7.59906 10.7709 7.8535 10.5672 8.15243 10.5672H8.52996C10.9757 10.5672 12.8902 9.63632 13.4498 6.9425C13.6836 5.81716 13.5626 4.87753 12.944 4.21668C12.748 4.01225 12.5138 3.84302 12.2531 3.71729Z" fill="#179BD7"/>
<path d="M11.5839 3.46715C11.3797 3.41176 11.1719 3.36852 10.9618 3.3377C10.5466 3.27789 10.1271 3.24919 9.70711 3.25188H5.90486C5.76016 3.25178 5.62019 3.30021 5.51026 3.38842C5.40032 3.47663 5.32768 3.5988 5.30546 3.73285L4.4966 8.53576L4.47333 8.67588C4.49853 8.52298 4.58126 8.38359 4.70657 8.28292C4.83188 8.18225 4.99149 8.12696 5.15651 8.12703H6.57977C9.37508 8.12703 11.5638 7.06279 12.2035 3.984C12.2226 3.89285 12.2387 3.80412 12.2531 3.71734C12.0843 3.63434 11.9084 3.56477 11.7272 3.50934C11.6797 3.49456 11.6319 3.4805 11.5839 3.46715Z" fill="#222D65"/>
<path d="M5.30548 3.73285C5.32751 3.59876 5.40012 3.47653 5.51011 3.38837C5.62009 3.3002 5.76017 3.25194 5.90488 3.25236H9.70713C10.1576 3.25236 10.578 3.28 10.9618 3.33818C11.2215 3.37644 11.4775 3.43367 11.7277 3.50933C11.9165 3.568 12.0918 3.63733 12.2537 3.71733C12.444 2.57939 12.2521 1.80461 11.5958 1.10303C10.8723 0.330667 9.56645 0 7.89547 0H3.0444C2.70307 0 2.4119 0.232727 2.35915 0.549333L0.33856 12.5566C0.329149 12.6124 0.332729 12.6694 0.349056 12.7237C0.365383 12.778 0.394068 12.8284 0.433139 12.8713C0.47221 12.9142 0.520739 12.9487 0.575387 12.9724C0.630036 12.9961 0.689508 13.0084 0.749712 13.0085H3.74465L4.49662 8.53576L5.30548 3.73285Z" fill="#253B80"/>
</g>
<defs>
<clipPath id="clip0_416_13315">
<rect width="64.1293" height="16" fill="white" transform="translate(0.333374)"/>
</clipPath>
</defs>
</svg>
