<svg width="261" height="250" viewBox="0 0 261 250" fill="none" xmlns="http://www.w3.org/2000/svg">
<path d="M126.092 39.7727L145.403 19.3181" stroke="#F1F5F9" stroke-width="3.40789" stroke-linecap="round"/>
<path d="M239.688 120.455L259 100" stroke="#2873FF" stroke-width="3.40789" stroke-linecap="round"/>
<path d="M193.114 239.773L212.425 219.318" stroke="#FACC15" stroke-width="3.40789" stroke-linecap="round"/>
<path d="M4.54395 110.227L23.8553 89.7727" stroke="#FACC15" stroke-width="3.40789" stroke-linecap="round"/>
<path d="M55.6624 220.455L74.9738 200" stroke="#2873FF" stroke-width="3.40789" stroke-linecap="round"/>
<ellipse cx="94.2851" cy="4.54545" rx="4.54386" ry="4.54545" fill="#2873FF"/>
<ellipse cx="73.8378" cy="46.5909" rx="4.54386" ry="4.54545" fill="#F1F5F9"/>
<ellipse cx="38.6227" cy="132.955" rx="4.54386" ry="4.54545" fill="#F1F5F9"/>
<ellipse cx="4.54386" cy="189.773" rx="4.54386" ry="4.54545" fill="#2873FF"/>
<ellipse cx="105.645" cy="245.455" rx="4.54386" ry="4.54545" fill="#F1F5F9"/>
<ellipse cx="176.075" cy="200" rx="5.67982" ry="5.68182" fill="#FACC15"/>
<ellipse cx="229.465" cy="171.591" rx="5.67982" ry="5.68182" fill="#F1F5F9"/>
<ellipse cx="207.881" cy="43.1818" rx="5.67982" ry="5.68182" fill="#2873FF"/>
<ellipse cx="201.066" cy="95.4545" rx="3.40789" ry="3.40909" fill="#F1F5F9"/>
<ellipse cx="14.7675" cy="47.7272" rx="3.40789" ry="3.40909" fill="#FACC15"/>
<ellipse cx="129.5" cy="126.136" rx="56.7982" ry="56.8182" fill="#2873FF"/>
<path d="M149.805 113.211L123.962 139.062L111.041 126.137" stroke="white" stroke-width="5.67982" stroke-linecap="round" stroke-linejoin="round"/>
</svg>
